<svg width="15" height="16" viewBox="0 0 15 16" fill="none" xmlns="http://www.w3.org/2000/svg">
<path d="M10.0781 7.90625H8.4375L8.4082 5.32812C8.36914 4.89844 8.13477 4.66406 7.70508 4.625H7.23633C7.04102 4.625 6.875 4.69336 6.73828 4.83008C6.60156 4.9668 6.5332 5.13281 6.5332 5.32812L6.5625 7.90625H4.92188C4.62891 7.92578 4.41406 8.0625 4.27734 8.31641C4.16016 8.60938 4.19922 8.86328 4.39453 9.07812L7.00195 11.8906C7.13867 12.0469 7.31445 12.125 7.5293 12.125C7.74414 12.125 7.91992 12.0469 8.05664 11.8906L10.6055 9.07812C10.8008 8.84375 10.8398 8.58984 10.7227 8.31641C10.5859 8.0625 10.3711 7.92578 10.0781 7.90625ZM7.5 0.875C6.09375 0.894531 4.83398 1.23633 3.7207 1.90039C2.58789 2.56445 1.68945 3.46289 1.02539 4.5957C0.361328 5.70898 0.0195313 6.96875 0 8.375C0.0195313 9.78125 0.361328 11.041 1.02539 12.1543C1.68945 13.2871 2.58789 14.1855 3.7207 14.8496C4.83398 15.5137 6.09375 15.8555 7.5 15.875C8.90625 15.8555 10.166 15.5137 11.2793 14.8496C12.4121 14.1855 13.3105 13.2871 13.9746 12.1543C14.6387 11.041 14.9805 9.78125 15 8.375C14.9805 6.96875 14.6387 5.70898 13.9746 4.5957C13.3105 3.46289 12.4121 2.56445 11.2793 1.90039C10.166 1.23633 8.90625 0.894531 7.5 0.875ZM7.5 14.4688C5.78125 14.4297 4.3457 13.834 3.19336 12.6816C2.04102 11.5293 1.44531 10.0938 1.40625 8.375C1.44531 6.65625 2.04102 5.2207 3.19336 4.06836C4.3457 2.91602 5.78125 2.32031 7.5 2.28125C9.21875 2.32031 10.6543 2.91602 11.8066 4.06836C12.959 5.2207 13.5547 6.65625 13.5938 8.375C13.5547 10.0938 12.959 11.5293 11.8066 12.6816C10.6543 13.834 9.21875 14.4297 7.5 14.4688Z" fill="white"/>
</svg>
