<svg width="24" height="24" viewBox="0 0 24 24" fill="none" xmlns="http://www.w3.org/2000/svg">
<path fill-rule="evenodd" clip-rule="evenodd" d="M5.41773 4.17428C5.06975 3.91609 4.57592 3.94477 4.26035 4.26035C3.91322 4.60748 3.91322 5.1703 4.26035 5.51743L10.7429 12L4.26035 18.4826L4.17428 18.5823C3.91609 18.9303 3.94477 19.4241 4.26035 19.7397C4.60748 20.0868 5.1703 20.0868 5.51743 19.7397L12 13.2571L18.4826 19.7397L18.5823 19.8257C18.9303 20.0839 19.4241 20.0552 19.7397 19.7397C20.0868 19.3925 20.0868 18.8297 19.7397 18.4826L13.2571 12L19.7397 5.51743L19.8257 5.41773C20.0839 5.06975 20.0552 4.57592 19.7397 4.26035C19.3925 3.91322 18.8297 3.91322 18.4826 4.26035L12 10.7429L5.51743 4.26035L5.41773 4.17428Z" fill="#212121"/>
</svg>
