<svg width="16" height="16" viewBox="0 0 16 16" fill="none" xmlns="http://www.w3.org/2000/svg">
<path fill-rule="evenodd" clip-rule="evenodd" d="M8 16C3.58172 16 0 12.4183 0 8C0 3.58172 3.58172 0 8 0C12.4183 0 16 3.58172 16 8C16 12.4183 12.4183 16 8 16ZM8 15.2C11.9764 15.2 15.2 11.9764 15.2 8C15.2 4.02355 11.9764 0.8 8 0.8C4.02355 0.8 0.8 4.02355 0.8 8C0.8 11.9764 4.02355 15.2 8 15.2ZM8 13C10.7614 13 13 10.7614 13 8C13 5.23858 10.7614 3 8 3C5.23858 3 3 5.23858 3 8C3 10.7614 5.23858 13 8 13Z" fill="#00B5EE"/>
</svg>
