<svg width="20" height="20" viewBox="0 0 20 20" fill="none" xmlns="http://www.w3.org/2000/svg">
<path d="M8.72296 5.45411H10.751V7.60212L10.379 10.9021H9.09496L8.72296 7.60212V5.45411ZM9.69496 11.8381C9.99896 11.8381 10.247 11.9341 10.439 12.1261C10.631 12.3181 10.727 12.5661 10.727 12.8701C10.727 13.1741 10.631 13.4261 10.439 13.6261C10.247 13.8181 9.99896 13.9141 9.69496 13.9141C9.39896 13.9141 9.15496 13.8181 8.96296 13.6261C8.77096 13.4261 8.67496 13.1741 8.67496 12.8701C8.67496 12.5661 8.76696 12.3181 8.95096 12.1261C9.14296 11.9341 9.39096 11.8381 9.69496 11.8381Z" fill="#FF3838"/>
<circle cx="10" cy="10" r="7.7" stroke="#FF3838" stroke-width="1.6"/>
</svg>
