<svg width="20" height="20" viewBox="0 0 20 20" fill="none" xmlns="http://www.w3.org/2000/svg">
<path d="M8.72321 5.45436H10.7512V7.60236L10.3792 10.9024H9.09521L8.72321 7.60236V5.45436ZM9.69521 11.8384C9.99921 11.8384 10.2472 11.9344 10.4392 12.1264C10.6312 12.3184 10.7272 12.5664 10.7272 12.8704C10.7272 13.1744 10.6312 13.4264 10.4392 13.6264C10.2472 13.8184 9.99921 13.9144 9.69521 13.9144C9.39921 13.9144 9.15521 13.8184 8.96321 13.6264C8.77121 13.4264 8.67521 13.1744 8.67521 12.8704C8.67521 12.5664 8.76721 12.3184 8.95121 12.1264C9.14321 11.9344 9.39121 11.8384 9.69521 11.8384Z" fill="#A6A6A6"/>
<circle cx="10" cy="10" r="7.7" stroke="#A6A6A6" stroke-width="1.6"/>
</svg>
