<svg width="20" height="20" viewBox="0 0 20 20" fill="none" xmlns="http://www.w3.org/2000/svg">
<path d="M9.10733 10.9022L8.73533 5.41824H10.9673L10.5953 10.9022H9.10733ZM9.85133 13.9142C9.51533 13.9142 9.23933 13.8062 9.02333 13.5902C8.80733 13.3742 8.69933 13.1182 8.69933 12.8222C8.69933 12.5182 8.80733 12.2662 9.02333 12.0662C9.23933 11.8582 9.51533 11.7542 9.85133 11.7542C10.1953 11.7542 10.4713 11.8582 10.6793 12.0662C10.8953 12.2662 11.0033 12.5182 11.0033 12.8222C11.0033 13.1182 10.8953 13.3742 10.6793 13.5902C10.4713 13.8062 10.1953 13.9142 9.85133 13.9142Z" fill="#A6A6A6"/>
<circle cx="10" cy="10" r="7.7" stroke="#A6A6A6" stroke-width="1.6"/>
</svg>
