<svg width="51" height="50" xmlns="http://www.w3.org/2000/svg" viewBox="0 0 51 50" fill="none">
  <path fill="#e1e1e1" fill-rule="evenodd" clip-rule="evenodd" d="M8.88721 7.89737C8.88721 7.89886 8.88605 7.9001 8.88457 7.90021C7.77096 7.98366 6.92826 8.97483 7.04796 10.1051L9.68984 35.0526C9.79758 36.0699 10.6557 36.8419 11.6787 36.8419H44.4492C45.4443 36.8419 46.288 36.1104 46.429 35.1254L50.0005 10.178C50.173 8.97291 49.238 7.89453 48.0207 7.89453H15.1034H9.03684H8.89006C8.88849 7.89453 8.88721 7.8958 8.88721 7.89737Z"/>
  <path fill="white" d="M21.5679 29.6825C22.2003 30.3541 23.2679 30.3538 23.8998 29.6818L26.2269 27.2073C27.4114 25.9477 29.4126 25.9476 30.5974 27.2069L32.9258 29.6821C33.5579 30.354 34.6255 30.3542 35.2578 29.6826C35.8382 29.0662 35.8384 28.1045 35.2583 27.4878L32.545 24.6036C31.4584 23.4486 31.4584 21.6474 32.545 20.4924L35.2583 17.6082C35.8384 16.9915 35.8382 16.0298 35.2578 15.4134C34.6255 14.7418 33.5579 14.7421 32.9258 15.414L30.5974 17.8891C29.4126 19.1485 27.4114 19.1483 26.2269 17.8887L23.8998 15.4143C23.2679 14.7423 22.2003 14.7419 21.5679 15.4135C20.9875 16.0299 20.9873 16.9915 21.5674 17.6081L24.2808 20.4924C25.3673 21.6474 25.3673 23.4486 24.2808 24.6036L21.5674 27.4879C20.9873 28.1045 20.9875 29.0662 21.5679 29.6825Z"/>
  <path fill="#e1e1e1" fill-rule="evenodd" clip-rule="evenodd" d="M2.17392 0C0.973295 0 0 0.973295 0 2.17392C0 3.37454 0.973294 4.34783 2.17391 4.34783H4.78907L10.2447 43.8314C10.4064 45.0016 11.4855 45.8147 12.655 45.6476L12.6743 45.6447C12.7358 45.6499 12.7981 45.6526 12.8611 45.6526H14.8672C14.8548 45.7842 14.8484 45.9176 14.8484 46.0526C14.8484 48.2327 16.5104 50 18.5606 50C20.6108 50 22.2728 48.2327 22.2728 46.0526C22.2728 45.9176 22.2664 45.7842 22.254 45.6526H33.4283C33.4158 45.7842 33.4094 45.9176 33.4094 46.0526C33.4094 48.2327 35.0714 50 37.1216 50C39.1718 50 40.8338 48.2327 40.8338 46.0526C40.8338 45.9176 40.8274 45.7842 40.815 45.6526H43.1603C44.3609 45.6526 45.3342 44.6793 45.3342 43.4787C45.3342 42.2781 44.3609 41.3048 43.1603 41.3048H14.2142L8.76259 1.85035C8.613 0.767699 7.67816 -0.00930874 6.61302 0.0128406C6.53497 0.00435463 6.45567 0 6.37537 0H2.17392Z"/>
</svg>