<svg width="24" height="24" viewBox="0 0 24 24" fill="none" xmlns="http://www.w3.org/2000/svg">
  <circle cx="12" cy="12" r="12" fill="black" fill-opacity="0.06"/>
  <path d="M17.4988 10.0489V10.1362C17.4767 10.9698 17.1371 11.8588 16.4361 12.5668L16.436 12.5669C15.8799 13.1288 14.7121 14.3047 13.6687 15.3517C13.147 15.8753 12.6567 16.3662 12.2897 16.7319C12.1819 16.8394 12.0849 16.9359 12.001 17.0191C11.917 16.9358 11.8199 16.8393 11.7119 16.7318C11.3448 16.366 10.8545 15.8749 10.3328 15.3513C9.28937 14.3042 8.12188 13.1282 7.56632 12.5669L7.56598 12.5665C6.83819 11.8326 6.5 10.9059 6.5 10.0489C6.5 9.34681 6.72623 8.70758 7.12959 8.25079C7.52591 7.80197 8.11786 7.5 8.92206 7.5C9.40766 7.5 9.92363 7.66956 10.4144 7.93662C10.9024 8.20217 11.3357 8.54805 11.6464 8.85879L11.9997 9.21204L12.3533 8.85909C12.6648 8.54808 13.0982 8.20214 13.5861 7.93659C14.0767 7.66953 14.5924 7.5 15.0779 7.5C15.8826 7.5 16.4742 7.80219 16.8701 8.25101C17.2731 8.70789 17.4988 9.34717 17.4988 10.0489Z" stroke="white"/>
</svg>
