<svg width="24" height="24" viewBox="0 0 24 24" fill="none" xmlns="http://www.w3.org/2000/svg">
<path d="M17.5067 9.29343H10.7867C9.96192 9.29343 9.29333 9.96201 9.29333 10.7868V17.5068C9.29333 18.3315 9.96192 19.0001 10.7867 19.0001H17.5067C18.3314 19.0001 19 18.3315 19 17.5068V10.7868C19 9.96201 18.3314 9.29343 17.5067 9.29343Z" stroke="#767676" stroke-linecap="round" stroke-linejoin="round"/>
<path d="M7.24 14.7067H6.49333C6.09728 14.7067 5.71744 14.5493 5.43739 14.2693C5.15733 13.9892 5 13.6094 5 13.2133V6.49333C5 6.09728 5.15733 5.71744 5.43739 5.43739C5.71744 5.15733 6.09728 5 6.49333 5H13.2133C13.6094 5 13.9892 5.15733 14.2693 5.43739C14.5493 5.71744 14.7067 6.09728 14.7067 6.49333V7.24" stroke="#767676" stroke-linecap="round" stroke-linejoin="round"/>
</svg>
