<svg width="20" height="20" viewBox="0 0 20 20" fill="none" xmlns="http://www.w3.org/2000/svg">
<path d="M9.49821 11.1454C9.49821 10.8887 9.53854 10.6614 9.61921 10.4634C9.70721 10.2654 9.81354 10.0894 9.93821 9.93536C10.0702 9.78136 10.2095 9.63836 10.3562 9.50636C10.5029 9.37436 10.6385 9.24969 10.7632 9.13236C10.8952 9.00769 11.0015 8.87936 11.0822 8.74736C11.1702 8.61536 11.2142 8.46869 11.2142 8.30736C11.2142 8.04336 11.1042 7.83069 10.8842 7.66936C10.6715 7.50803 10.3855 7.42736 10.0262 7.42736C9.68154 7.42736 9.37354 7.50069 9.10221 7.64736C8.83087 7.78669 8.60721 7.98469 8.43121 8.24136L7.10021 7.46036C7.39354 7.01303 7.80054 6.65736 8.32121 6.39336C8.84187 6.12203 9.47254 5.98636 10.2132 5.98636C10.7632 5.98636 11.2472 6.06703 11.6652 6.22836C12.0832 6.38236 12.4095 6.60969 12.6442 6.91036C12.8862 7.21103 13.0072 7.58136 13.0072 8.02136C13.0072 8.30736 12.9632 8.56036 12.8752 8.78036C12.7872 9.00036 12.6735 9.19103 12.5342 9.35236C12.3949 9.51369 12.2445 9.66403 12.0832 9.80336C11.9292 9.94269 11.7825 10.0784 11.6432 10.2104C11.5039 10.3424 11.3865 10.4817 11.2912 10.6284C11.2032 10.775 11.1592 10.9474 11.1592 11.1454H9.49821ZM10.3342 13.9064C10.0262 13.9064 9.77321 13.8074 9.57521 13.6094C9.37721 13.4114 9.27821 13.1767 9.27821 12.9054C9.27821 12.6267 9.37721 12.3957 9.57521 12.2124C9.77321 12.0217 10.0262 11.9264 10.3342 11.9264C10.6495 11.9264 10.9025 12.0217 11.0932 12.2124C11.2912 12.3957 11.3902 12.6267 11.3902 12.9054C11.3902 13.1767 11.2912 13.4114 11.0932 13.6094C10.9025 13.8074 10.6495 13.9064 10.3342 13.9064Z" fill="#A6A6A6"/>
<circle cx="10" cy="10" r="7.7" stroke="#A6A6A6" stroke-width="1.6"/>
</svg>
