<svg width="30" height="30" viewBox="0 0 30 30" fill="none" xmlns="http://www.w3.org/2000/svg">
<circle cx="15" cy="15" r="10" fill="#A6A6A6"/>
<path d="M18.1492 11.0073L11.0064 18.1502C10.7739 18.3827 10.7739 18.7595 11.0064 18.992C11.2388 19.2245 11.6157 19.2245 11.8482 18.992L18.991 11.8491C19.2235 11.6167 19.2235 11.2398 18.991 11.0073C18.7586 10.7749 18.3817 10.7749 18.1492 11.0073Z" fill="white"/>
<path d="M11.0064 11.8491L18.1492 18.992C18.3817 19.2245 18.7586 19.2245 18.991 18.992C19.2235 18.7595 19.2235 18.3827 18.991 18.1502L11.8482 11.0073C11.6157 10.7749 11.2388 10.7749 11.0064 11.0073C10.7739 11.2398 10.7739 11.6167 11.0064 11.8491Z" fill="white"/>
</svg>
