<svg width="20" height="20" viewBox="0 0 20 20" fill="none" xmlns="http://www.w3.org/2000/svg">
<path d="M7.35321 8.61536C7.36054 7.81603 7.58787 7.19269 8.03521 6.74536C8.48254 6.29803 9.09854 6.07436 9.88321 6.07436C10.6239 6.07436 11.2069 6.24303 11.6322 6.58036C12.0575 6.91769 12.2702 7.39069 12.2702 7.99936C12.2702 8.38803 12.1822 8.71069 12.0062 8.96736C11.8302 9.22403 11.5735 9.49903 11.2362 9.79236C10.9429 10.0564 10.7265 10.2874 10.5872 10.4854C10.4479 10.676 10.3782 10.907 10.3782 11.1784H8.91521C8.91521 10.885 8.95554 10.6284 9.03621 10.4084C9.12421 10.1884 9.22687 10.0087 9.34421 9.86936C9.46887 9.72269 9.62654 9.55769 9.81721 9.37436C10.0299 9.17636 10.1875 9.00403 10.2902 8.85736C10.3929 8.70336 10.4442 8.52369 10.4442 8.31836C10.4442 7.87103 10.1949 7.64736 9.69621 7.64736C9.14621 7.64736 8.86754 7.97369 8.86021 8.62636L7.35321 8.61536ZM9.60821 12.0034C9.88687 12.0034 10.1142 12.0914 10.2902 12.2674C10.4662 12.4434 10.5542 12.6707 10.5542 12.9494C10.5542 13.228 10.4662 13.459 10.2902 13.6424C10.1142 13.8184 9.88687 13.9064 9.60821 13.9064C9.33687 13.9064 9.11321 13.8184 8.93721 13.6424C8.76121 13.459 8.67321 13.228 8.67321 12.9494C8.67321 12.6707 8.75754 12.4434 8.92621 12.2674C9.10221 12.0914 9.32954 12.0034 9.60821 12.0034Z" fill="#FF3838"/>
<circle cx="10" cy="10" r="7.7" stroke="#FF3838" stroke-width="1.6"/>
</svg>
