<svg width="41" height="40" viewBox="0 0 41 40" fill="none" xmlns="http://www.w3.org/2000/svg">
<rect x="0.926758" y="0.5" width="39" height="39" rx="3.5" fill="white" stroke="#F1F2F7"/>
<path fill-rule="evenodd" clip-rule="evenodd" d="M6.59833 6.1716C5.42676 7.34318 5.42676 9.2288 5.42676 13V27C5.42676 30.7713 5.42676 32.6569 6.59833 33.8285C7.7699 35 9.65552 35 13.4268 35H27.4268C31.198 35 33.0836 35 34.2552 33.8285C35.4268 32.6569 35.4268 30.7713 35.4268 27V13C35.4268 9.7498 35.4268 7.90017 34.6768 6.70114V27.5C34.0936 27.5 33.802 27.5 33.5231 27.4606C32.8539 27.3659 32.2196 27.1031 31.6794 26.6969C31.4543 26.5276 31.2481 26.3214 30.8358 25.909L29.2552 24.3285C27.9219 22.9951 27.2552 22.3285 26.4268 22.3285C25.5983 22.3285 24.9317 22.9951 23.5983 24.3285L22.5156 25.4112C21.5692 26.3576 21.096 26.8308 20.575 26.7305C20.0539 26.6301 19.7903 26.015 19.2631 24.7848L18.2541 22.4305C17.1996 19.9701 16.6724 18.7399 15.6303 18.5392C14.5883 18.3385 13.6419 19.2849 11.7491 21.1777L7.67676 25.25V5.4751C7.25537 5.64187 6.90275 5.86719 6.59833 6.1716Z" fill="#D6D9E6"/>
<path d="M6.42676 13C6.42676 11.0861 6.42888 9.75129 6.56429 8.74416C6.69583 7.76579 6.93642 7.2477 7.30544 6.87868C7.67445 6.50966 8.19255 6.26907 9.17092 6.13753C10.1781 6.00212 11.5129 6 13.4268 6H27.4268C29.3406 6 30.6755 6.00212 31.6826 6.13753C32.661 6.26907 33.1791 6.50966 33.5481 6.87868L34.2379 6.18882L33.5481 6.87868C33.9171 7.2477 34.1577 7.76579 34.2892 8.74416C34.4246 9.75129 34.4268 11.0861 34.4268 13V27C34.4268 28.9139 34.4246 30.2487 34.2892 31.2558C34.1577 32.2342 33.9171 32.7523 33.5481 33.1213C33.1791 33.4903 32.661 33.7309 31.6826 33.8625C30.6755 33.9979 29.3406 34 27.4268 34H13.4268C11.5129 34 10.1781 33.9979 9.17092 33.8625C8.19255 33.7309 7.67446 33.4903 7.30544 33.1213L6.61558 33.8112L7.30544 33.1213C6.93642 32.7523 6.69583 32.2342 6.56429 31.2558C6.42888 30.2487 6.42676 28.9139 6.42676 27V13Z" stroke="#D6D9E6" stroke-width="2"/>
<ellipse cx="24.9268" cy="15.5" rx="3" ry="3" fill="#D6D9E6"/>
</svg>
