<svg width="50" height="50" viewBox="0 0 50 50" fill="none" xmlns="http://www.w3.org/2000/svg">
<rect width="50" height="50" rx="5" fill="#C8C8C8"/>
<path d="M14.72 27.7727H22.8216L23.4967 34.6666H14.0449L14.72 27.7727Z" stroke="white" stroke-width="1.5" stroke-linejoin="round"/>
<path d="M16.0684 27.5186C16.0684 26.0272 17.2774 24.8181 18.7689 24.8181V24.8181C20.2603 24.8181 21.4694 26.0272 21.4694 27.5186V27.7727H16.0684V27.5186Z" stroke="white" stroke-width="1.5" stroke-linejoin="round"/>
<path d="M28.224 15.9546H36.3255L37.0006 22.8485H27.5488L28.224 15.9546Z" stroke="white" stroke-width="1.5" stroke-linejoin="round"/>
<path d="M29.5742 15.7005C29.5742 14.2091 30.7833 13 32.2747 13V13C33.7662 13 34.9752 14.2091 34.9752 15.7005V15.9545H29.5742V15.7005Z" stroke="white" stroke-width="1.5" stroke-linejoin="round"/>
<path d="M14.0449 24.3257C14.0449 20.5183 18.2766 17.4318 23.4967 17.4318" stroke="white" stroke-width="1.5" stroke-linejoin="round"/>
<path d="M21.4707 14.9697L23.4961 17.4318L21.4707 19.894" stroke="white" stroke-width="1.5" stroke-linejoin="round"/>
<path d="M36.998 25.3107C36.998 29.1181 32.7663 32.2046 27.5463 32.2046" stroke="white" stroke-width="1.5" stroke-linejoin="round"/>
<path d="M29.5742 34.6666L27.5488 32.2045L29.5742 29.7424" stroke="white" stroke-width="1.5" stroke-linejoin="round"/>
</svg>
