<svg width="100" height="16" viewBox="0 0 100 16" fill="none" xmlns="http://www.w3.org/2000/svg">
<path d="M0.585938 0.859375H12.4805V3.57422H8.18359V15H4.88281V3.57422H0.585938V0.859375ZM14.1406 0.859375H19.9805C21.0156 0.859375 21.8913 1.00911 22.6074 1.30859C23.3301 1.60156 23.8737 2.01823 24.2383 2.55859C24.6029 3.09896 24.7852 3.73047 24.7852 4.45312C24.7852 5.24089 24.5443 5.90495 24.0625 6.44531C23.5807 6.98568 22.9427 7.33724 22.1484 7.5V7.63672C22.7214 7.66276 23.2487 7.81901 23.7305 8.10547C24.2188 8.39193 24.6061 8.78906 24.8926 9.29688C25.1855 9.80469 25.332 10.3906 25.332 11.0547C25.332 11.8164 25.14 12.4967 24.7559 13.0957C24.3717 13.6882 23.8086 14.1536 23.0664 14.4922C22.3307 14.8307 21.4518 15 20.4297 15H14.1406V0.859375ZM19.6484 12.3047C20.3906 12.3047 20.944 12.1647 21.3086 11.8848C21.6732 11.5983 21.8555 11.1979 21.8555 10.6836C21.8555 10.1237 21.6634 9.68099 21.2793 9.35547C20.8952 9.02344 20.3711 8.86068 19.707 8.86719H17.4609V12.3047H19.6484ZM19.4336 6.69922C20.013 6.69271 20.4818 6.54622 20.8398 6.25977C21.2044 5.9668 21.3867 5.57292 21.3867 5.07812C21.3867 4.59635 21.2142 4.21549 20.8691 3.93555C20.5306 3.6556 20.0651 3.51562 19.4727 3.51562H17.4609V6.69922H19.4336ZM26.9727 0.859375H30.293V6.5625H35.9766V0.859375H39.2969V15H35.9766V9.27734H30.293V15H26.9727V0.859375ZM53.5547 5.05859C53.5091 4.53776 53.2975 4.13411 52.9199 3.84766C52.5423 3.5612 52.0182 3.41797 51.3477 3.41797C50.6836 3.41797 50.1758 3.54818 49.8242 3.80859C49.4727 4.06901 49.2969 4.41081 49.2969 4.83398C49.2969 5.23763 49.4759 5.5599 49.834 5.80078C50.1986 6.04167 50.7227 6.23698 51.4062 6.38672L52.6367 6.67969C54.0299 6.98568 55.0944 7.49023 55.8301 8.19336C56.5723 8.88997 56.9466 9.79167 56.9531 10.8984C56.9531 11.7839 56.7285 12.5488 56.2793 13.1934C55.8366 13.8379 55.1953 14.3327 54.3555 14.6777C53.5156 15.0228 52.513 15.1953 51.3477 15.1953C50.1562 15.1888 49.1243 15.0065 48.252 14.6484C47.3861 14.2904 46.7122 13.75 46.2305 13.0273C45.7552 12.3047 45.5078 11.4128 45.4883 10.3516H48.6914C48.7305 11.0221 48.9811 11.5365 49.4434 11.8945C49.9121 12.2461 50.5339 12.4219 51.3086 12.4219C52.0052 12.4219 52.5521 12.2852 52.9492 12.0117C53.3529 11.7318 53.5612 11.3607 53.5742 10.8984C53.5677 10.4948 53.3822 10.1725 53.0176 9.93164C52.653 9.69076 52.0703 9.47917 51.2695 9.29688L49.7852 8.94531C47.168 8.33333 45.8594 7.03125 45.8594 5.03906C45.8594 4.17969 46.0938 3.41797 46.5625 2.75391C47.0312 2.08984 47.6823 1.57552 48.5156 1.21094C49.3555 0.846354 50.306 0.664062 51.3672 0.664062C52.4414 0.664062 53.3822 0.849609 54.1895 1.2207C55.0033 1.58529 55.6315 2.09961 56.0742 2.76367C56.5234 3.42773 56.7513 4.19271 56.7578 5.05859H53.5547ZM58.6719 0.859375H61.9922V6.5625H67.6758V0.859375H70.9961V15H67.6758V9.27734H61.9922V15H58.6719V0.859375ZM86.4062 7.92969C86.4062 9.4401 86.1133 10.7454 85.5273 11.8457C84.9479 12.9395 84.1471 13.7728 83.125 14.3457C82.1094 14.9121 80.9635 15.1953 79.6875 15.1953C78.4049 15.1953 77.2559 14.9089 76.2402 14.3359C75.2246 13.763 74.4238 12.9297 73.8379 11.8359C73.2585 10.7357 72.9688 9.43359 72.9688 7.92969C72.9688 6.41276 73.2585 5.10742 73.8379 4.01367C74.4238 2.91992 75.2246 2.08984 76.2402 1.52344C77.2559 0.950521 78.4049 0.664062 79.6875 0.664062C80.9635 0.664062 82.1094 0.950521 83.125 1.52344C84.1471 2.08984 84.9479 2.91992 85.5273 4.01367C86.1133 5.10742 86.4062 6.41276 86.4062 7.92969ZM76.3672 7.92969C76.3672 8.85417 76.5007 9.64193 76.7676 10.293C77.0345 10.944 77.4154 11.4355 77.9102 11.7676C78.4049 12.0996 78.9974 12.2656 79.6875 12.2656C80.3776 12.2656 80.9701 12.0996 81.4648 11.7676C81.9661 11.4355 82.347 10.944 82.6074 10.293C82.8743 9.64193 83.0078 8.85417 83.0078 7.92969C83.0078 7.00521 82.8743 6.21745 82.6074 5.56641C82.347 4.91536 81.9661 4.42383 81.4648 4.0918C80.9701 3.75326 80.3776 3.58724 79.6875 3.59375C78.9974 3.58724 78.4049 3.75326 77.9102 4.0918C77.4154 4.42383 77.0345 4.91536 76.7676 5.56641C76.5007 6.21745 76.3672 7.00521 76.3672 7.92969ZM88.3789 0.859375H94.1602C95.2083 0.859375 96.1198 1.06445 96.8945 1.47461C97.6693 1.87826 98.2617 2.44792 98.6719 3.18359C99.0885 3.91927 99.2969 4.76562 99.2969 5.72266C99.2969 6.69271 99.0853 7.54232 98.6621 8.27148C98.2454 9.00065 97.64 9.56706 96.8457 9.9707C96.0579 10.3678 95.1302 10.5664 94.0625 10.5664H91.6992V15H88.3789V0.859375ZM93.457 7.92969C94.2253 7.9362 94.8177 7.74089 95.2344 7.34375C95.651 6.94661 95.8594 6.40625 95.8594 5.72266C95.8594 5.05208 95.651 4.52474 95.2344 4.14062C94.8242 3.75 94.2318 3.55469 93.457 3.55469H91.6992V7.92969H93.457Z" fill="#212121"/>
</svg>
