<svg width="16" height="16" viewBox="0 0 16 16" fill="none" xmlns="http://www.w3.org/2000/svg">
<rect width="16" height="16" rx="2" fill="#00B5EE"/>
<path fill-rule="evenodd" clip-rule="evenodd" d="M11.9021 4.63249C12.0217 4.50714 12.1593 4.44446 12.3148 4.44446C12.4702 4.44446 12.6078 4.50714 12.7274 4.63249C12.835 4.74531 12.8889 4.88634 12.8889 5.05557C12.8889 5.2248 12.835 5.36582 12.7274 5.47865L7.00425 11.5145C6.99229 11.5271 6.98033 11.5396 6.96837 11.5522C6.95641 11.5647 6.94445 11.5772 6.93249 11.5898C6.82485 11.7151 6.69029 11.7778 6.52882 11.7778C6.36735 11.7778 6.2328 11.7151 6.12515 11.5898L3.27255 8.61882C3.16491 8.506 3.11108 8.36497 3.11108 8.19574C3.11108 8.02651 3.16491 7.88548 3.27255 7.77266C3.39216 7.64731 3.5297 7.58463 3.68519 7.58463C3.84068 7.58463 3.97823 7.64731 4.09783 7.77266L6.51985 10.3111L11.9021 4.63249Z" fill="white"/>
</svg>
