<svg width="20" height="20" viewBox="0 0 20 20" fill="none" xmlns="http://www.w3.org/2000/svg">
<rect width="20" height="20" rx="2" fill="#00B5EE"/>
<path fill-rule="evenodd" clip-rule="evenodd" d="M14.8777 5.79058C15.0272 5.63389 15.1991 5.55554 15.3935 5.55554C15.5878 5.55554 15.7598 5.63389 15.9093 5.79058C16.0438 5.93161 16.1111 6.10789 16.1111 6.31943C16.1111 6.53097 16.0438 6.70725 15.9093 6.84828L8.75535 14.3931C8.7404 14.4088 8.72545 14.4245 8.7105 14.4402C8.69555 14.4558 8.68059 14.4715 8.66564 14.4872C8.53109 14.6439 8.36289 14.7222 8.16106 14.7222C7.95922 14.7222 7.79103 14.6439 7.65647 14.4872L4.09072 10.7735C3.95616 10.6325 3.88889 10.4562 3.88889 10.2446C3.88889 10.0331 3.95616 9.85682 4.09072 9.7158C4.24023 9.5591 4.41216 9.48076 4.60652 9.48076C4.80088 9.48076 4.97281 9.5591 5.12232 9.7158L8.14984 12.8889L14.8777 5.79058Z" fill="white"/>
</svg>
