<svg width="20" height="20" viewBox="0 0 20 20" fill="none" xmlns="http://www.w3.org/2000/svg">
<path fill-rule="evenodd" clip-rule="evenodd" d="M10 18.5C14.6944 18.5 18.5 14.6944 18.5 10C18.5 5.30558 14.6944 1.5 10 1.5C5.30558 1.5 1.5 5.30558 1.5 10C1.5 14.6944 5.30558 18.5 10 18.5ZM10 20C15.5228 20 20 15.5228 20 10C20 4.47715 15.5228 0 10 0C4.47715 0 0 4.47715 0 10C0 15.5228 4.47715 20 10 20ZM6.58437 6.70299C6.87253 6.40543 7.34734 6.39781 7.64489 6.68596L9.97958 8.94687L12.2473 6.60516C12.5354 6.30761 13.0103 6.29998 13.3078 6.58814C13.6054 6.87629 13.613 7.3511 13.3248 7.64866L11.0571 9.99037L13.3918 12.2513C13.6894 12.5394 13.697 13.0143 13.4089 13.3118C13.1207 13.6094 12.6459 13.617 12.3483 13.3288L10.0136 11.0679L7.75951 13.3956C7.47135 13.6932 6.99654 13.7008 6.69898 13.4126C6.40143 13.1245 6.3938 12.6497 6.68196 12.3521L8.93609 10.0244L6.6014 7.76351C6.30384 7.47536 6.29622 7.00054 6.58437 6.70299Z" fill="#0F1222"/>
</svg>
