<svg width="24" height="24" viewBox="0 0 24 24" fill="none" xmlns="http://www.w3.org/2000/svg">
<path d="M5.25 11C4.83579 11 4.5 11.3358 4.5 11.75C4.5 12.1297 4.78215 12.4435 5.14823 12.4932L5.25 12.5H19.25C19.6642 12.5 20 12.1642 20 11.75C20 11.3703 19.7178 11.0565 19.3518 11.0068L19.25 11H5.25Z" fill="white"/>
<path d="M19.7803 11.2197C19.5141 10.9534 19.0974 10.9292 18.8038 11.1471L18.7197 11.2197L14.7197 15.2197C14.4268 15.5126 14.4268 15.9874 14.7197 16.2803C14.9859 16.5466 15.4026 16.5708 15.6962 16.3529L15.7803 16.2803L19.7803 12.2803C20.0732 11.9874 20.0732 11.5126 19.7803 11.2197Z" fill="white"/>
<path d="M15.7803 7.21967C15.4874 6.92678 15.0126 6.92678 14.7197 7.21967C14.4534 7.48594 14.4292 7.9026 14.6471 8.19621L14.7197 8.28033L18.7197 12.2803C19.0126 12.5732 19.4874 12.5732 19.7803 12.2803C20.0466 12.0141 20.0708 11.5974 19.8529 11.3038L19.7803 11.2197L15.7803 7.21967Z" fill="white"/>
</svg>
