<svg width="24" height="24" viewBox="0 0 24 24" fill="none" xmlns="http://www.w3.org/2000/svg">
<path d="M18.75 13C19.1642 13 19.5 12.6642 19.5 12.25C19.5 11.8703 19.2178 11.5565 18.8518 11.5068L18.75 11.5L4.75 11.5C4.33579 11.5 4 11.8358 4 12.25C4 12.6297 4.28215 12.9435 4.64823 12.9932L4.75 13L18.75 13Z" fill="#212121"/>
<path d="M4.21967 12.7803C4.48594 13.0466 4.9026 13.0708 5.19621 12.8529L5.28033 12.7803L9.28033 8.78033C9.57322 8.48744 9.57322 8.01256 9.28033 7.71967C9.01406 7.4534 8.5974 7.4292 8.30379 7.64705L8.21967 7.71967L4.21967 11.7197C3.92678 12.0126 3.92678 12.4874 4.21967 12.7803Z" fill="#212121"/>
<path d="M8.21967 16.7803C8.51256 17.0732 8.98744 17.0732 9.28033 16.7803C9.5466 16.5141 9.5708 16.0974 9.35295 15.8038L9.28033 15.7197L5.28033 11.7197C4.98744 11.4268 4.51256 11.4268 4.21967 11.7197C3.9534 11.9859 3.9292 12.4026 4.14705 12.6962L4.21967 12.7803L8.21967 16.7803Z" fill="#212121"/>
</svg>
