<svg width="188" height="19" viewBox="0 0 188 19" fill="none" xmlns="http://www.w3.org/2000/svg">
<path d="M16.5264 9.48196C16.5264 4.11266 20.7787 0 26.0083 0C31.238 0 35.4903 4.11266 35.4903 9.48196C35.4903 14.8513 31.238 18.9639 26.0083 18.9639C20.7787 18.9639 16.5264 14.8513 16.5264 9.48196ZM31.3269 9.48196C31.3269 6.21976 28.9786 4.06188 26.0083 4.06188C23.0381 4.06188 20.6898 6.21976 20.6898 9.48196C20.6898 12.7442 23.0381 14.902 26.0083 14.902C28.9786 14.902 31.3269 12.7442 31.3269 9.48196Z" fill="white"/>
<path d="M77.4552 18.9893H73.2918V7.64142L68.5699 15.3844H68.1002L63.3783 7.64142V18.9893H59.2148V0H63.3783L68.3287 8.09838L73.2918 0H77.4552V18.9893Z" fill="white"/>
<path d="M101.509 12.2491H99.5287V18.9893H95.3652V0H102.664C106.129 0 108.922 2.79255 108.922 6.25784C108.922 8.50457 107.564 10.5355 105.558 11.551L109.874 18.9893H105.393L101.509 12.2491ZM99.5287 8.59343H102.651C103.794 8.59343 104.733 7.57795 104.733 6.24515C104.733 4.91234 103.794 3.89687 102.651 3.89687H99.5287V8.59343Z" fill="white"/>
<path d="M183.673 0.0125732V9.91342L179.281 3.73174L176.641 0.0125732H173.506V3.73174V18.9892H177.682V9.08835L184.714 18.9892H187.849V0.0125732H183.673Z" fill="white"/>
<path d="M115.104 9.50735C115.104 6.24515 117.452 4.07458 120.422 4.07458H125.373V0.0253906H120.422C115.18 0.0253906 110.94 4.13805 110.94 9.50735C110.94 14.8767 115.193 18.9893 120.422 18.9893V18.9766H125.373V14.9274H120.422C117.439 14.9274 115.104 12.7696 115.104 9.50735Z" fill="white"/>
<path d="M4.16343 9.50735C4.16343 6.24515 6.51171 4.07458 9.48196 4.07458H14.4324V0.0253906H9.48196C4.25229 0.0253906 0 4.15074 0 9.50735C0 14.864 4.25229 18.9893 9.48196 18.9893V18.9766H14.4324V14.9274H9.48196C6.51171 14.9274 4.16343 12.7696 4.16343 9.50735Z" fill="white"/>
<path d="M161.523 0.0125732V0.0252666H156.573H151.623C146.38 0.0252666 142.141 4.13792 142.141 9.50723C142.141 14.8765 146.393 18.9892 151.623 18.9892L156.573 18.9765H161.523C166.766 18.9765 171.005 14.8638 171.005 9.49454C171.005 4.12523 166.766 0.0125732 161.523 0.0125732ZM161.523 14.9146H156.573H151.623C148.652 14.9146 146.304 12.7694 146.304 9.50723C146.304 6.24503 148.652 4.08715 151.623 4.08715L156.573 4.07446H161.523C164.494 4.07446 166.842 6.23233 166.842 9.49454C166.842 12.7567 164.506 14.9146 161.523 14.9146Z" fill="white"/>
<path d="M139.564 4.02368V0.0125732H128.229V18.9892H139.564V14.9781H132.405V11.5636H138.916V7.40013H132.405V4.02368H139.564Z" fill="white"/>
<path d="M91.926 4.02368V0.0125732H80.5908V18.9892H91.926V14.9781H84.7542V11.5636H91.2787V7.40013H84.7542V4.02368H91.926Z" fill="white"/>
<path d="M56.092 18.9893H51.9158V7.64142L47.1939 15.3844H46.7242L42.0023 7.64142V18.9893H37.8389V0H42.0023L46.9654 8.09838L51.9158 0H56.0793V18.9893H56.092Z" fill="white"/>
</svg>
