<svg width="270" height="79" viewBox="0 0 270 79" fill="none" xmlns="http://www.w3.org/2000/svg">
<path d="M56.5269 39.482C56.5269 34.1127 60.7791 30 66.0088 30C71.2385 30 75.4908 34.1127 75.4908 39.482C75.4908 44.8513 71.2385 48.9639 66.0088 48.9639C60.7791 48.9639 56.5269 44.8513 56.5269 39.482ZM71.3273 39.482C71.3273 36.2198 68.9791 34.0619 66.0088 34.0619C63.0386 34.0619 60.6903 36.2198 60.6903 39.482C60.6903 42.7442 63.0386 44.902 66.0088 44.902C68.9791 44.902 71.3273 42.7442 71.3273 39.482Z" fill="black"/>
<path d="M117.455 48.9893H113.292V37.6414L108.57 45.3844H108.1L103.378 37.6414V48.9893H99.2146V30H103.378L108.328 38.0984L113.292 30H117.455V48.9893Z" fill="black"/>
<path d="M141.509 42.2491H139.529V48.9893H135.365V30H142.664C146.129 30 148.922 32.7925 148.922 36.2578C148.922 38.5046 147.564 40.5355 145.558 41.551L149.874 48.9893H145.393L141.509 42.2491ZM139.529 38.5934H142.651C143.794 38.5934 144.733 37.578 144.733 36.2451C144.733 34.9123 143.794 33.8969 142.651 33.8969H139.529V38.5934Z" fill="black"/>
<path d="M223.673 30.0126V39.9134L219.281 33.7317L216.641 30.0126H213.506V33.7317V48.9892H217.682V39.0883L224.714 48.9892H227.849V30.0126H223.673Z" fill="black"/>
<path d="M155.104 39.5074C155.104 36.2452 157.452 34.0746 160.422 34.0746H165.373V30.0254H160.422C155.18 30.0254 150.94 34.138 150.94 39.5074C150.94 44.8767 155.192 48.9893 160.422 48.9893V48.9766H165.373V44.9274H160.422C157.439 44.9274 155.104 42.7696 155.104 39.5074Z" fill="black"/>
<path d="M44.1634 39.5074C44.1634 36.2452 46.5117 34.0746 49.482 34.0746H54.4324V30.0254H49.482C44.2523 30.0254 40 34.1507 40 39.5074C40 44.864 44.2523 48.9893 49.482 48.9893V48.9766H54.4324V44.9274H49.482C46.5117 44.9274 44.1634 42.7696 44.1634 39.5074Z" fill="black"/>
<path d="M201.523 30.0126V30.0253H196.573H191.623C186.38 30.0253 182.141 34.1379 182.141 39.5072C182.141 44.8765 186.393 48.9892 191.623 48.9892L196.573 48.9765H201.523C206.766 48.9765 211.005 44.8638 211.005 39.4945C211.005 34.1252 206.766 30.0126 201.523 30.0126ZM201.523 44.9146H196.573H191.623C188.652 44.9146 186.304 42.7694 186.304 39.5072C186.304 36.245 188.652 34.0872 191.623 34.0872L196.573 34.0745H201.523C204.494 34.0745 206.842 36.2323 206.842 39.4945C206.842 42.7567 204.506 44.9146 201.523 44.9146Z" fill="black"/>
<path d="M179.564 34.0237V30.0126H168.229V48.9892H179.564V44.9781H172.405V41.5636H178.916V37.4001H172.405V34.0237H179.564Z" fill="black"/>
<path d="M131.926 34.0237V30.0126H120.59V48.9892H131.926V44.9781H124.754V41.5636H131.278V37.4001H124.754V34.0237H131.926Z" fill="black"/>
<path d="M96.0922 48.9893H91.9161V37.6414L87.1941 45.3844H86.7245L82.0025 37.6414V48.9893H77.8391V30H82.0025L86.9657 38.0984L91.9161 30H96.0795V48.9893H96.0922Z" fill="black"/>
</svg>
